<?xml version="1.0" encoding="utf-8"?>
<!-- Generator: Adobe Illustrator 24.0.0, SVG Export Plug-In . SVG Version: 6.00 Build 0)  -->
<svg version="1.1" id="Capa_1" xmlns="http://www.w3.org/2000/svg" xmlns:xlink="http://www.w3.org/1999/xlink" x="0px" y="0px"
	 viewBox="0 0 100 37.5" style="enable-background:new 0 0 100 37.5;" xml:space="preserve">
<style type="text/css">
	.st0{fill:#A335EF;}
</style>
<path d="M83.7,37.5c0-0.3,0-0.7,0-1c0-0.8,0-1.6,0-2.4c0-0.1,0-0.2,0.2-0.2c0.4,0,0.9,0,1.3,0c0.8,0,1.4-0.3,1.8-0.9
	c0.3-0.4,0.6-0.9,0.8-1.3c0.2-0.6,0.5-1.1,0.7-1.7c0-0.1,0-0.2,0-0.3c-2.3-5.6-4.6-11.2-6.8-16.8c0,0,0-0.1-0.1-0.1
	c0.1,0,0.1,0,0.2,0c1.3,0,2.5,0,3.8,0c0.1,0,0.2,0,0.3,0.2c1.6,4,3.2,8.1,4.8,12.1c0.1,0,0.1-0.1,0.1-0.2c1.6-4,3.3-8,4.9-12
	c0.1-0.2,0.1-0.2,0.3-0.2c1.3,0,2.6,0,3.9,0c0,0.1,0,0.1,0,0.1C97,19.4,94.2,26,91.4,32.6c-0.5,1.1-1,2.1-1.8,3
	c-0.9,1.1-2.1,1.8-3.5,1.9c0,0-0.1,0-0.1,0C85.2,37.5,84.5,37.5,83.7,37.5z"/>
<path class="st0" d="M7.8,0C7.9,0.1,8,0.1,8.1,0.2c2.4,1.4,4.8,2.8,7.2,4.2c0.1,0.1,0.2,0.1,0.2,0.2c0,1.4,0,2.8,0,4.2
	c0,0,0,0,0,0.1c-0.4-0.3-0.9-0.5-1.3-0.7C12.1,7,10,5.8,7.9,4.6c-0.1-0.1-0.2-0.1-0.4,0C5.1,6,2.6,7.4,0.2,8.9c0,0-0.1,0-0.1,0.1
	c0,0,0-0.1,0-0.1C0,7.4,0,6,0,4.6c0-0.1,0-0.2,0.2-0.3C2.6,3,5.1,1.6,7.5,0.1C7.6,0.1,7.7,0,7.8,0C7.8,0,7.8,0,7.8,0z"/>
<path d="M60.5,14.5c0.3-0.4,0.6-0.7,1-0.9c1.2-0.9,2.5-1.2,4-1.2c0.9,0,1.8,0.3,2.5,0.7c0.6,0.4,1.2,0.9,1.5,1.6
	c0.1,0.2,0.1,0.1,0.2,0c0.9-1,2-1.7,3.3-2.1c1.4-0.4,2.8-0.4,4.2,0c1.7,0.5,2.9,1.7,3.5,3.4c0.3,0.9,0.5,1.9,0.5,2.9
	c0,3.5,0,7.1,0,10.6c0,0.1,0,0.2-0.2,0.2c-1.2,0-2.4,0-3.6,0c-0.2,0-0.2,0-0.2-0.2c0-3.2,0-6.4,0-9.6c0-0.7-0.1-1.4-0.4-2.1
	c-0.6-1.4-1.7-1.9-3.1-1.7c-1.4,0.2-2.4,1.2-2.8,2.7c-0.1,0.4-0.1,0.9-0.1,1.3c0,3.1,0,6.2,0,9.4c0,0.2,0,0.3-0.2,0.3
	c-1.2,0-2.3,0-3.5,0c-0.2,0-0.2,0-0.2-0.2c0-3.2,0-6.4,0-9.6c0-0.6-0.1-1.2-0.3-1.8c-0.8-2.4-3.6-2.5-4.9-1.2
	c-0.7,0.7-1,1.5-1.1,2.4c0,0.3,0,0.6,0,0.9c0,3.1,0,6.2,0,9.3c0,0.2,0,0.2-0.2,0.2c-1.2,0-2.4,0-3.6,0c-0.2,0-0.2,0-0.2-0.2
	c0-5.5,0-11,0-16.5c0-0.2,0-0.2,0.2-0.2c1.2,0,2.4,0,3.6,0c0.1,0,0.2,0,0.2,0.2C60.5,13.4,60.5,13.9,60.5,14.5z"/>
<path d="M31.3,14.2c0-0.1,0-0.2,0-0.3c0-2.5,0-5,0-7.5c0-0.2,0-0.2,0.2-0.2c1.2,0,2.4,0,3.6,0c0.1,0,0.2,0,0.2,0.2
	c0,7.7,0,15.3,0,23c0,0.2,0,0.2-0.2,0.2c-1.2,0-2.4,0-3.6,0c-0.2,0-0.2,0-0.2-0.2c0-0.4,0-0.9,0-1.3c-0.1,0-0.1,0-0.1,0.1
	c-1.2,1-2.5,1.5-4,1.7c-1.5,0.2-3,0.1-4.4-0.5c-2.3-0.9-3.9-2.6-4.8-4.9c-0.5-1.5-0.7-3-0.5-4.5c0.2-1.7,0.8-3.3,2-4.6
	c1.4-1.7,3.2-2.7,5.4-2.9c2.1-0.2,4,0.2,5.8,1.4c0.1,0.1,0.2,0.1,0.3,0.2C31.1,14.1,31.2,14.1,31.3,14.2z M21.5,21.2
	c0,1,0.2,1.9,0.7,2.8c1.1,1.9,3.3,2.8,5.6,2.3c3.3-0.8,4.8-4.4,3.4-7.4c-0.8-1.7-2.2-2.6-4.1-2.8c-1.1-0.1-2.2,0.1-3.2,0.7
	C22.2,17.8,21.5,19.3,21.5,21.2z"/>
<path d="M53.7,26.7c-0.4,0.4-0.8,0.8-1.2,1.2c-1.4,1.2-3.1,1.9-4.9,2.1c-1.8,0.2-3.6,0-5.3-0.7c-2.6-1.1-4.2-3.1-4.7-5.8
	c-0.4-1.8-0.3-3.6,0.2-5.3c0.9-2.8,2.7-4.6,5.5-5.5c2.1-0.6,4.1-0.6,6.2,0.1c1.8,0.7,3.1,2,4.1,3.6c0.8,1.4,1.1,3,1.1,4.7
	c0,0.4,0,0.7-0.1,1.1c0,0.2-0.1,0.2-0.2,0.2c-4.2,0-8.5,0-12.7,0c-0.2,0-0.2,0-0.2,0.2c0.3,2.3,2,3.7,4.1,3.9
	c1.9,0.3,3.6-0.2,5.1-1.5c0.1-0.1,0.1-0.1,0.2,0C51.7,25.6,52.7,26.2,53.7,26.7z M45.9,19.2c1.4,0,2.9,0,4.3,0
	c0.2,0,0.2-0.1,0.2-0.2c0-0.2-0.1-0.4-0.1-0.6c-0.3-1-1.1-1.7-2-2.2c-1.5-0.8-3.1-0.7-4.5,0c-1.2,0.6-2,1.5-2.3,2.8
	c0,0.2,0,0.2,0.2,0.2C43.1,19.2,44.5,19.2,45.9,19.2z"/>
<path d="M15.5,18.2c0,1.7,0,3.3,0,5c0,1.1-0.2,2.2-0.7,3.1c-0.7,1.3-1.7,2.3-3.1,2.9c-1.4,0.7-3,0.9-4.6,0.8C6,30,4.8,29.8,3.7,29.2
	c-2-1-3.3-2.6-3.6-4.9C0,23.9,0,23.4,0,22.9c0-3.3,0-6.6,0-10c0-0.2,0-0.2,0.2-0.2c1.2,0,2.4,0,3.7,0c0.2,0,0.2,0,0.2,0.2
	c0,3.2,0,6.3,0,9.5c0,0.6,0.1,1.3,0.4,1.9c0.5,1.2,1.5,1.8,2.7,2c1.4,0.2,2.7-0.2,3.6-1.4c0.6-0.7,0.8-1.6,0.8-2.5c0-2,0-4,0-5.9
	c0-1.2,0-2.4,0-3.7c0-0.1,0-0.2,0.2-0.2c1.2,0,2.4,0,3.7,0c0.2,0,0.2,0,0.2,0.2C15.5,14.7,15.5,16.4,15.5,18.2
	C15.5,18.2,15.5,18.2,15.5,18.2z"/>
</svg>
