<svg xmlns="http://www.w3.org/2000/svg"  viewBox="0 0 40 40" width="80px" height="80px"><path fill="#c2e8ff" d="M15.5,20.5h-14v12.148l14,1.921V20.5z M15.5,4.589l-14,1.965V18.5h14V4.589z M17.5,4.241V18.5h20 v-17L17.5,4.241z M17.5,20.5v14.276l20,2.811V20.5H17.5z"/><path fill="#7496c4" d="M38,38.162L17,35.21V20h21V38.162z M18,34.341l19,2.67V21H18V34.341z M16,35.142L1,33.083V20h15 V35.142z M2,32.211l13,1.784V21H2V32.211z M38,19H17V3.805l21-2.878V19z M18,18h19V2.073L18,4.677V18z M16,19H1V6.12l15-2.106V19z M2,18h13V5.164L2,6.989V18z"/></svg>